<svg xmlns="http://www.w3.org/2000/svg" viewBox="0 0 1200 630">
  <defs>
    <linearGradient id="bg" x1="0" y1="0" x2="1" y2="1">
      <stop offset="0%" stop-color="#0a0e1a"/>
      <stop offset="100%" stop-color="#131b2e"/>
    </linearGradient>
    <radialGradient id="helixGlow" cx="50%" cy="50%" r="60%">
      <stop offset="0%" stop-color="#76b900" stop-opacity="0.28"/>
      <stop offset="100%" stop-color="#76b900" stop-opacity="0"/>
    </radialGradient>
  </defs>
  <rect width="1200" height="630" fill="url(#bg)"/>
  <circle cx="310" cy="315" r="300" fill="url(#helixGlow)"/>
  <path d="M 180 100 C 440 200 180 260 440 360 C 180 460 440 520 180 560"
        fill="none" stroke="#76b900" stroke-width="22" stroke-linecap="round"/>
  <path d="M 440 100 C 180 200 440 260 180 360 C 440 460 180 520 440 560"
        fill="none" stroke="#4ecdc4" stroke-width="22" stroke-linecap="round"/>
  <g stroke="#d1d5db" stroke-width="5" opacity="0.55" stroke-linecap="round">
    <line x1="220" y1="165" x2="400" y2="165"/>
    <line x1="220" y1="263" x2="400" y2="263"/>
    <line x1="220" y1="361" x2="400" y2="361"/>
    <line x1="220" y1="459" x2="400" y2="459"/>
    <line x1="220" y1="525" x2="400" y2="525"/>
  </g>
  <text x="620" y="220" font-family="Helvetica, Arial, sans-serif" font-size="84" font-weight="800" fill="#fef3c7" letter-spacing="-2">Molecule Viewer</text>
  <text x="620" y="282" font-family="Helvetica, Arial, sans-serif" font-size="32" font-weight="500" fill="#76b900">Voice-guided Boltz-2 + OpenFold3</text>
  <text x="620" y="358" font-family="Helvetica, Arial, sans-serif" font-size="26" fill="#94a3b8">Hands-free 3D protein structures.</text>
  <text x="620" y="398" font-family="Helvetica, Arial, sans-serif" font-size="26" fill="#94a3b8">Ask to focus a residue, walk a chain,</text>
  <text x="620" y="438" font-family="Helvetica, Arial, sans-serif" font-size="26" fill="#94a3b8">or launch a guided tour.</text>
  <text x="620" y="548" font-family="Helvetica, Arial, sans-serif" font-size="22" fill="#64748b">phrmai.sheldonbarnes.com / protein-viewer</text>
</svg>